<?xml version="1.0" encoding="UTF-8"?>
<!DOCTYPE svg PUBLIC "-//W3C//DTD SVG 1.1//EN" "http://www.w3.org/Graphics/SVG/1.1/DTD/svg11.dtd">
<svg width="80" height="80" viewBox="0 0 80 80" fill="none" xmlns="http://www.w3.org/2000/svg">
<rect width="80" height="80" rx="8" fill="#D87958"/>
<path d="M22.63 41.78C23.23 41.78 23.73 41.53 24.13 41.03C24.55 40.53 24.89 39.92 25.15 39.2C25.43 38.48 25.63 37.73 25.75 36.95C25.87 36.17 25.93 35.49 25.93 34.91C25.93 34.37 25.84 33.92 25.66 33.56C25.48 33.18 25.09 32.99 24.49 32.99H23.14L21.25 41.78H22.63ZM20.83 43.7L19.48 50H13L17.05 30.95H23.98C25.12 30.95 26.16 31.01 27.1 31.13C28.04 31.25 28.85 31.49 29.53 31.85C30.21 32.21 30.74 32.73 31.12 33.41C31.5 34.07 31.69 34.96 31.69 36.08C31.69 37.12 31.52 38.11 31.18 39.05C30.86 39.97 30.33 40.78 29.59 41.48C28.87 42.16 27.93 42.7 26.77 43.1C25.61 43.5 24.2 43.7 22.54 43.7H20.83ZM46.9783 50H39.9583L36.6283 36.23L33.6883 50H30.9883L35.0383 30.95H42.2083L45.3583 44.9L48.3283 30.95H51.0883L46.9783 50ZM54.3449 30.95H66.9749L66.4949 33.23H60.3749L59.1149 39.02H64.2449L63.7649 41.27H58.6349L57.2549 47.69H63.3749L62.9249 50H50.2949L54.3449 30.95Z" fill="white"/>
</svg>
