<?xml version="1.0" encoding="UTF-8"?>
<!DOCTYPE svg PUBLIC "-//W3C//DTD SVG 1.1//EN" "http://www.w3.org/Graphics/SVG/1.1/DTD/svg11.dtd">
<svg xmlns="http://www.w3.org/2000/svg" version="1.1" width="300px" height="300px"
     style="shape-rendering:geometricPrecision; text-rendering:geometricPrecision; image-rendering:optimizeQuality; fill-rule:evenodd; clip-rule:evenodd">
<g><path style="opacity:1" fill="#fefefe" d="M -0.5,-0.5 C 99.5,-0.5 199.5,-0.5 299.5,-0.5C 299.5,99.5 299.5,199.5 299.5,299.5C 199.5,299.5 99.5,299.5 -0.5,299.5C -0.5,199.5 -0.5,99.5 -0.5,-0.5 Z"/></g>
<g><path style="opacity:1" fill="#f59160" d="M 115.5,73.5 C 122.848,74.4511 124.181,77.6178 119.5,83C 113.808,83.8433 111.641,81.3433 113,75.5C 113.995,74.9341 114.828,74.2674 115.5,73.5 Z"/></g>
<g><path style="opacity:1" fill="#f34d54" d="M 167.5,74.5 C 165.83,75.871 165.164,77.371 165.5,79C 169.025,79.1787 172.359,79.6787 175.5,80.5C 165.906,79.7302 157.239,82.0636 149.5,87.5C 148.191,83.6493 148.191,79.6493 149.5,75.5C 155.439,74.5429 161.439,74.2096 167.5,74.5 Z"/></g>
<g><path style="opacity:1" fill="#f26f58" d="M 174.5,74.5 C 172.167,74.5 169.833,74.5 167.5,74.5C 161.439,74.2096 155.439,74.5429 149.5,75.5C 148.191,79.6493 148.191,83.6493 149.5,87.5C 136.458,99.3384 132.958,113.672 139,130.5C 140.03,132.346 141.196,134.013 142.5,135.5C 141.805,137.978 140.305,139.978 138,141.5C 135.959,140.577 133.792,140.244 131.5,140.5C 131.533,124.61 131.199,108.61 130.5,92.5C 136.545,92.9713 138.545,90.4713 136.5,85C 132.806,84.1989 129.306,83.0322 126,81.5C 124.959,78.3637 125.793,75.8637 128.5,74C 144.006,73.1721 159.339,73.3388 174.5,74.5 Z"/></g>
<g><path style="opacity:1" fill="#f4a564" d="M 101.5,91.5 C 107.292,91.7787 109.292,94.612 107.5,100C 101.141,103.225 98.3078,101.392 99,94.5C 100.045,93.6266 100.878,92.6266 101.5,91.5 Z"/></g>
<g><path style="opacity:1" fill="#f47e58" d="M 130.5,92.5 C 131.199,108.61 131.533,124.61 131.5,140.5C 130.5,142.167 129.167,143.5 127.5,144.5C 127.046,139.273 127.046,133.94 127.5,128.5C 130.531,124.996 129.864,122.329 125.5,120.5C 124.791,119.596 123.791,119.263 122.5,119.5C 122.5,116.833 122.5,114.167 122.5,111.5C 123.791,111.737 124.791,111.404 125.5,110.5C 129.32,109.428 130.32,107.094 128.5,103.5C 123.887,102.721 119.22,102.221 114.5,102C 111.022,99.2935 110.689,96.2935 113.5,93C 119.157,92.5006 124.824,92.3339 130.5,92.5 Z"/></g>
<g><path style="opacity:1" fill="#f1bf5d" d="M 77.5,110.5 C 81.6372,110.146 85.6372,110.646 89.5,112C 91.0135,114.916 90.6801,117.582 88.5,120C 84.8333,120.667 81.1667,120.667 77.5,120C 74.8881,116.836 74.8881,113.669 77.5,110.5 Z"/></g>
<g><path style="opacity:1" fill="#f2a059" d="M 108.5,110.5 C 108.833,113.833 109.167,117.167 109.5,120.5C 105.486,120.666 101.486,120.499 97.5,120C 94.0339,117.339 93.7006,114.339 96.5,111C 100.486,110.501 104.486,110.334 108.5,110.5 Z"/></g>
<g><path style="opacity:1" fill="#f4905a" d="M 108.5,110.5 C 114.167,110.5 119.833,110.5 125.5,110.5C 124.791,111.404 123.791,111.737 122.5,111.5C 122.5,114.167 122.5,116.833 122.5,119.5C 123.791,119.263 124.791,119.596 125.5,120.5C 120.167,120.5 114.833,120.5 109.5,120.5C 109.167,117.167 108.833,113.833 108.5,110.5 Z"/></g>
<g><path style="opacity:1" fill="#dc204a" d="M 159.5,146.5 C 160.167,145.833 160.833,145.167 161.5,144.5C 188.058,147.77 201.224,136.103 201,109.5C 192.748,89.9549 178.582,83.2882 158.5,89.5C 157.167,89.5 156.5,88.8333 156.5,87.5C 172.096,80.5196 185.929,83.1863 198,95.5C 208.661,113.397 206.161,129.23 190.5,143C 180.666,148.615 170.333,149.782 159.5,146.5 Z"/></g>
<g><path style="opacity:1" fill="#1f0a0b" d="M 175.5,80.5 C 191.348,83.3303 201.848,92.3303 207,107.5C 209.389,125.859 202.556,139.526 186.5,148.5C 177.223,151.879 167.89,152.212 158.5,149.5C 155.828,147.74 152.995,146.074 150,144.5C 148.669,145.996 147.169,147.329 145.5,148.5C 148.155,151.534 148.155,154.534 145.5,157.5C 144.761,157.631 144.094,157.464 143.5,157C 144.252,156.329 144.586,155.496 144.5,154.5C 143.741,152.564 142.741,150.731 141.5,149C 143.447,146.049 145.781,143.382 148.5,141C 152.211,142.494 155.878,144.328 159.5,146.5C 170.333,149.782 180.666,148.615 190.5,143C 206.161,129.23 208.661,113.397 198,95.5C 185.929,83.1863 172.096,80.5196 156.5,87.5C 147.675,91.7825 142.175,98.7825 140,108.5C 138.441,117.775 139.941,126.442 144.5,134.5C 143.075,132.969 142.409,133.302 142.5,135.5C 141.196,134.013 140.03,132.346 139,130.5C 132.958,113.672 136.458,99.3384 149.5,87.5C 157.239,82.0636 165.906,79.7302 175.5,80.5 Z"/></g>
<g><path style="opacity:1" fill="#f38a57" d="M 127.5,128.5 C 127.046,133.94 127.046,139.273 127.5,144.5C 123.5,149.167 119.167,153.5 114.5,157.5C 111.167,157.5 107.833,157.5 104.5,157.5C 104.777,154.552 104.444,151.719 103.5,149C 108.684,148.826 113.684,148.326 118.5,147.5C 123.38,145.679 123.713,143.179 119.5,140C 115.5,139.667 111.5,139.333 107.5,139C 103.627,136.019 103.627,133.019 107.5,130C 114.246,129.795 120.913,129.295 127.5,128.5 Z"/></g>
<g><path style="opacity:1" fill="#1d1716" d="M 144.5,134.5 C 146.273,135.314 146.773,136.648 146,138.5C 143.564,141.447 140.731,143.78 137.5,145.5C 136.162,143.887 134.495,143.387 132.5,144C 127.963,148.369 123.63,152.869 119.5,157.5C 113.936,161.877 113.27,166.877 117.5,172.5C 120.106,173.652 122.773,173.818 125.5,173C 130.703,167.965 135.703,162.798 140.5,157.5C 141.833,156.5 143.167,155.5 144.5,154.5C 144.586,155.496 144.252,156.329 143.5,157C 144.094,157.464 144.761,157.631 145.5,157.5C 140.703,162.798 135.703,167.965 130.5,173C 122.993,178.555 116.826,177.389 112,169.5C 110.773,164.938 111.607,160.938 114.5,157.5C 119.167,153.5 123.5,149.167 127.5,144.5C 129.167,143.5 130.5,142.167 131.5,140.5C 133.792,140.244 135.959,140.577 138,141.5C 140.305,139.978 141.805,137.978 142.5,135.5C 142.409,133.302 143.075,132.969 144.5,134.5 Z"/></g>
<g><path style="opacity:1" fill="#f2ad5f" d="M 94.5,129.5 C 101.821,130.319 103.154,133.486 98.5,139C 92.808,139.843 90.6413,137.343 92,131.5C 92.9947,130.934 93.828,130.267 94.5,129.5 Z"/></g>
<g><path style="opacity:1" fill="#f4285a" d="M 167.5,74.5 C 169.833,74.5 172.167,74.5 174.5,74.5C 187.77,75.7164 198.27,81.7164 206,92.5C 217.666,114.571 214.166,133.738 195.5,150C 191.433,152.594 187.099,154.428 182.5,155.5C 182.343,154.127 182.51,152.793 183,151.5C 184.518,150.837 185.685,149.837 186.5,148.5C 202.556,139.526 209.389,125.859 207,107.5C 201.848,92.3303 191.348,83.3303 175.5,80.5C 172.359,79.6787 169.025,79.1787 165.5,79C 165.164,77.371 165.83,75.871 167.5,74.5 Z"/></g>
<g><path style="opacity:1" fill="#1e1313" d="M 161.5,144.5 C 144.176,134.702 139.009,120.368 146,101.5C 149.403,96.5949 153.57,92.5949 158.5,89.5C 178.582,83.2882 192.748,89.9549 201,109.5C 201.224,136.103 188.058,147.77 161.5,144.5 Z"/></g>
<g><path style="opacity:1" fill="#fafafa" d="M 165.5,89.5 C 180.12,88.5206 190.62,94.5206 197,107.5C 200.023,131.815 189.189,143.315 164.5,142C 146.575,133.898 141.408,120.731 149,102.5C 153.512,96.8113 159.012,92.4779 165.5,89.5 Z"/></g>
<g><path style="opacity:1" fill="#e0594e" d="M 156.5,87.5 C 156.5,88.8333 157.167,89.5 158.5,89.5C 153.57,92.5949 149.403,96.5949 146,101.5C 139.009,120.368 144.176,134.702 161.5,144.5C 160.833,145.167 160.167,145.833 159.5,146.5C 155.878,144.328 152.211,142.494 148.5,141C 145.781,143.382 143.447,146.049 141.5,149C 142.741,150.731 143.741,152.564 144.5,154.5C 143.167,155.5 141.833,156.5 140.5,157.5C 140.167,157.5 139.833,157.5 139.5,157.5C 139.984,153.173 139.318,149.173 137.5,145.5C 140.731,143.78 143.564,141.447 146,138.5C 146.773,136.648 146.273,135.314 144.5,134.5C 139.941,126.442 138.441,117.775 140,108.5C 142.175,98.7825 147.675,91.7825 156.5,87.5 Z"/></g>
<g><path style="opacity:1" fill="#ec7053" d="M 137.5,145.5 C 139.318,149.173 139.984,153.173 139.5,157.5C 132.833,157.5 126.167,157.5 119.5,157.5C 123.63,152.869 127.963,148.369 132.5,144C 134.495,143.387 136.162,143.887 137.5,145.5 Z"/></g>
<g><path style="opacity:1" fill="#e65350" d="M 158.5,149.5 C 157.883,149.611 157.383,149.944 157,150.5C 156.503,152.81 156.337,155.143 156.5,157.5C 152.833,157.5 149.167,157.5 145.5,157.5C 148.155,154.534 148.155,151.534 145.5,148.5C 147.169,147.329 148.669,145.996 150,144.5C 152.995,146.074 155.828,147.74 158.5,149.5 Z"/></g>
<g><path style="opacity:1" fill="#f0c65f" d="M 72.5,147.5 C 76.3076,147.163 79.9743,147.663 83.5,149C 84.7766,151.466 84.7766,153.966 83.5,156.5C 79.5575,157.6 75.5575,157.767 71.5,157C 68.6749,153.476 69.0082,150.31 72.5,147.5 Z"/></g>
<g><path style="opacity:1" fill="#f24055" d="M 186.5,148.5 C 185.685,149.837 184.518,150.837 183,151.5C 182.51,152.793 182.343,154.127 182.5,155.5C 182.082,156.222 181.416,156.722 180.5,157C 172.507,157.5 164.507,157.666 156.5,157.5C 156.337,155.143 156.503,152.81 157,150.5C 157.383,149.944 157.883,149.611 158.5,149.5C 167.89,152.212 177.223,151.879 186.5,148.5 Z"/></g>
<g><path style="opacity:1" fill="#f3ab62" d="M 118.5,147.5 C 113.684,148.326 108.684,148.826 103.5,149C 104.444,151.719 104.777,154.552 104.5,157.5C 100.154,157.666 95.8206,157.499 91.5,157C 89.3199,154.582 88.9865,151.916 90.5,149C 99.7264,147.555 109.06,147.055 118.5,147.5 Z"/></g>
<g><path style="opacity:1" fill="#f7f6f6" d="M 119.5,157.5 C 126.167,157.5 132.833,157.5 139.5,157.5C 139.833,157.5 140.167,157.5 140.5,157.5C 135.703,162.798 130.703,167.965 125.5,173C 122.773,173.818 120.106,173.652 117.5,172.5C 113.27,166.877 113.936,161.877 119.5,157.5 Z"/></g>
<g><path style="opacity:1" fill="#121212" d="M 74.5,183.5 C 78.8394,182.846 82.6727,183.846 86,186.5C 87.2184,192.089 85.0518,195.089 79.5,195.5C 79.5,197.5 79.5,199.5 79.5,201.5C 77.8333,201.5 76.1667,201.5 74.5,201.5C 74.5,195.5 74.5,189.5 74.5,183.5 Z"/></g>
<g><path style="opacity:1" fill="#161616" d="M 87.5,183.5 C 90.8499,183.335 94.1832,183.502 97.5,184C 98,184.5 98.5,185 99,185.5C 98.5599,190.859 98.7266,196.192 99.5,201.5C 97.8333,201.5 96.1667,201.5 94.5,201.5C 93.3724,193.699 92.7057,193.699 92.5,201.5C 90.8333,201.5 89.1667,201.5 87.5,201.5C 87.5,195.5 87.5,189.5 87.5,183.5 Z"/></g>
<g><path style="opacity:1" fill="#151515" d="M 104.5,183.5 C 114.333,182.511 117.833,186.844 115,196.5C 114.89,198.848 113.723,200.348 111.5,201C 106.661,202.716 103.494,201.216 102,196.5C 100.743,191.617 101.576,187.284 104.5,183.5 Z"/></g>
<g><path style="opacity:1" fill="#111111" d="M 125.5,189.5 C 125.238,190.978 125.571,192.311 126.5,193.5C 127.466,191.604 127.799,189.604 127.5,187.5C 127.5,186.167 127.5,184.833 127.5,183.5C 129.833,183.5 132.167,183.5 134.5,183.5C 134.5,189.5 134.5,195.5 134.5,201.5C 133.167,201.5 131.833,201.5 130.5,201.5C 130.473,189.594 129.806,189.594 128.5,201.5C 126.833,201.5 125.167,201.5 123.5,201.5C 123.5,200.167 123.5,198.833 123.5,197.5C 123.769,195.571 123.269,193.905 122,192.5C 121.502,195.482 121.335,198.482 121.5,201.5C 120.167,201.5 118.833,201.5 117.5,201.5C 117.5,195.5 117.5,189.5 117.5,183.5C 119.833,183.5 122.167,183.5 124.5,183.5C 124.517,185.565 124.85,187.565 125.5,189.5 Z"/></g>
<g><path style="opacity:1" fill="#040404" d="M 148.5,186.5 C 148.5,188.5 148.5,190.5 148.5,192.5C 146.964,195.092 144.631,196.092 141.5,195.5C 141.5,197.5 141.5,199.5 141.5,201.5C 140.167,201.5 138.833,201.5 137.5,201.5C 137.5,195.5 137.5,189.5 137.5,183.5C 140.187,183.336 142.854,183.503 145.5,184C 146.942,184.377 147.942,185.21 148.5,186.5 Z"/></g>
<g><path style="opacity:1" fill="#070707" d="M 160.5,183.5 C 160.5,184.833 160.5,186.167 160.5,187.5C 159.5,187.5 158.5,187.5 157.5,187.5C 157.5,192.167 157.5,196.833 157.5,201.5C 156.167,201.5 154.833,201.5 153.5,201.5C 153.5,196.833 153.5,192.167 153.5,187.5C 151.901,187.768 150.568,187.434 149.5,186.5C 149.5,185.5 149.5,184.5 149.5,183.5C 153.167,183.5 156.833,183.5 160.5,183.5 Z"/></g>
<g><path style="opacity:1" fill="#161616" d="M 162.5,183.5 C 164.167,183.5 165.833,183.5 167.5,183.5C 167.5,188.167 167.5,192.833 167.5,197.5C 168.5,197.5 169.5,197.5 170.5,197.5C 170.5,192.833 170.5,188.167 170.5,183.5C 172.167,183.5 173.833,183.5 175.5,183.5C 175.666,188.511 175.499,193.511 175,198.5C 172.091,201.394 168.591,202.227 164.5,201C 163.177,200.184 162.511,199.017 162.5,197.5C 162.5,192.833 162.5,188.167 162.5,183.5 Z"/></g>
<g><path style="opacity:1" fill="#1d1d1d" d="M 179.5,183.5 C 182.5,183.5 185.5,183.5 188.5,183.5C 189.003,189.521 189.669,195.521 190.5,201.5C 188.833,201.5 187.167,201.5 185.5,201.5C 185.5,200.5 185.5,199.5 185.5,198.5C 184.167,198.5 182.833,198.5 181.5,198.5C 181.5,199.5 181.5,200.5 181.5,201.5C 180.167,201.5 178.833,201.5 177.5,201.5C 178.297,195.516 178.963,189.516 179.5,183.5 Z"/></g>
<g><path style="opacity:1" fill="#171717" d="M 192.5,183.5 C 194.167,183.5 195.833,183.5 197.5,183.5C 197.5,188.167 197.5,192.833 197.5,197.5C 198.833,197.5 200.167,197.5 201.5,197.5C 201.5,198.833 201.5,200.167 201.5,201.5C 198.5,201.5 195.5,201.5 192.5,201.5C 192.5,195.5 192.5,189.5 192.5,183.5 Z"/></g>
<g><path style="opacity:1" fill="#070707" d="M 205.5,201.5 C 205.5,196.833 205.5,192.167 205.5,187.5C 204.167,187.5 202.833,187.5 201.5,187.5C 201.5,186.167 201.5,184.833 201.5,183.5C 205.5,183.5 209.5,183.5 213.5,183.5C 213.5,184.833 213.5,186.167 213.5,187.5C 212.167,187.5 210.833,187.5 209.5,187.5C 209.5,192.167 209.5,196.833 209.5,201.5C 208.167,201.5 206.833,201.5 205.5,201.5 Z"/></g>
<g><path style="opacity:1" fill="#151515" d="M 214.5,183.5 C 217.833,183.5 221.167,183.5 224.5,183.5C 224.5,184.833 224.5,186.167 224.5,187.5C 222.833,187.5 221.167,187.5 219.5,187.5C 219.5,188.5 219.5,189.5 219.5,190.5C 220.833,190.5 222.167,190.5 223.5,190.5C 223.5,191.833 223.5,193.167 223.5,194.5C 222.167,194.5 220.833,194.5 219.5,194.5C 219.5,195.5 219.5,196.5 219.5,197.5C 221.167,197.5 222.833,197.5 224.5,197.5C 224.5,198.833 224.5,200.167 224.5,201.5C 221.167,201.5 217.833,201.5 214.5,201.5C 214.5,195.5 214.5,189.5 214.5,183.5 Z"/></g>
<g><path style="opacity:1" fill="#b5b5b5" d="M 160.5,183.5 C 161.167,183.5 161.833,183.5 162.5,183.5C 162.5,188.167 162.5,192.833 162.5,197.5C 161.523,194.713 161.19,191.713 161.5,188.5C 160.5,188.5 159.5,188.5 158.5,188.5C 158.818,193.032 158.485,197.366 157.5,201.5C 157.5,196.833 157.5,192.167 157.5,187.5C 158.5,187.5 159.5,187.5 160.5,187.5C 160.5,186.167 160.5,184.833 160.5,183.5 Z"/></g>
<g><path style="opacity:1" fill="#c4c4c4" d="M 92.5,187.5 C 93.5862,187.62 94.2528,188.287 94.5,189.5C 94.1667,190.167 93.8333,190.833 93.5,191.5C 92.5713,190.311 92.238,188.978 92.5,187.5 Z"/></g>
<g><path style="opacity:1" fill="#eaeaea" d="M 107.5,187.5 C 108.5,187.5 109.5,187.5 110.5,187.5C 110.5,190.833 110.5,194.167 110.5,197.5C 109.167,197.5 107.833,197.5 106.5,197.5C 106.253,194.061 106.586,190.728 107.5,187.5 Z"/></g>
<g><path style="opacity:1" fill="#bfbfbf" d="M 141.5,187.5 C 142.5,187.5 143.5,187.5 144.5,187.5C 144.884,189.665 144.217,191.332 142.5,192.5C 141.548,190.955 141.215,189.288 141.5,187.5 Z"/></g>
<g><path style="opacity:1" fill="#8c8c8c" d="M 201.5,187.5 C 202.833,187.5 204.167,187.5 205.5,187.5C 205.5,192.167 205.5,196.833 205.5,201.5C 204.515,197.366 204.182,193.032 204.5,188.5C 203.209,188.737 202.209,188.404 201.5,187.5 Z"/></g>
<g><path style="opacity:1" fill="#797979" d="M 148.5,186.5 C 148.833,186.5 149.167,186.5 149.5,186.5C 150.568,187.434 151.901,187.768 153.5,187.5C 153.5,192.167 153.5,196.833 153.5,201.5C 152.515,197.366 152.182,193.032 152.5,188.5C 151.5,188.5 150.5,188.5 149.5,188.5C 149.768,190.099 149.434,191.432 148.5,192.5C 148.5,190.5 148.5,188.5 148.5,186.5 Z"/></g>
<g><path style="opacity:1" fill="#a8a8a8" d="M 78.5,187.5 C 79.5,187.5 80.5,187.5 81.5,187.5C 81.5,189.167 81.5,190.833 81.5,192.5C 80.5,192.5 79.5,192.5 78.5,192.5C 78.5,190.833 78.5,189.167 78.5,187.5 Z"/></g>
<g><path style="opacity:1" fill="#676767" d="M 127.5,187.5 C 127.799,189.604 127.466,191.604 126.5,193.5C 125.571,192.311 125.238,190.978 125.5,189.5C 126.167,188.833 126.833,188.167 127.5,187.5 Z"/></g>
<g><path style="opacity:1" fill="#7d7d7d" d="M 123.5,197.5 C 122.833,198.833 122.167,200.167 121.5,201.5C 121.335,198.482 121.502,195.482 122,192.5C 123.269,193.905 123.769,195.571 123.5,197.5 Z"/></g>
</svg>
